<svg
    width="512pt"
    height="512pt"
    version="1.1"
    viewBox="0 0 512 512"
    xmlns="http://www.w3.org/2000/svg"
>
    <g>
        <path
            d="m412.16 234.09-1.125-1.4336c-7.5352-9.4375-11.648-21.152-11.676-33.227v-34.152c-0.027344-11.996-3.5664-23.723-10.184-33.73-6.6133-10.008-16.012-17.859-27.039-22.59l-29.848-12.801-16.129 37.48 29.848 12.801c3.6836 1.582 6.8203 4.2109 9.0234 7.5586 2.2031 3.3516 3.375 7.2734 3.3672 11.281v34.152c0.035156 20.402 6.6602 40.246 18.895 56.574-12.234 16.328-18.863 36.172-18.895 56.574v34.152c0.007812 4.0078-1.1641 7.9297-3.3672 11.281-2.2031 3.3477-5.3398 5.9766-9.0234 7.5586l-29.848 12.801 16.129 37.633 29.848-12.801c11.027-4.7266 20.426-12.582 27.039-22.59 6.6172-10.008 10.156-21.734 10.184-33.73v-34.305c0.015625-12.094 4.1289-23.824 11.676-33.277l1.125-1.3828c4.9766-6.2188 7.6875-13.949 7.6875-21.914s-2.7109-15.695-7.6875-21.914z" />
        <path
            d="m153.6 346.73v-34.152c-0.03125-20.402-6.6602-40.246-18.895-56.574 12.234-16.328 18.863-36.172 18.895-56.574v-34.152c-0.007812-4.0078 1.1641-7.9297 3.3672-11.281 2.2031-3.3477 5.3398-5.9766 9.0234-7.5586l29.848-12.801-16.129-37.633-29.848 12.801c-11.027 4.7266-20.426 12.582-27.039 22.59-6.6172 10.008-10.156 21.734-10.184 33.73v34.152-0.003907c-0.015625 12.094-4.1289 23.828-11.676 33.281l-1.125 1.3828c-4.9766 6.2188-7.6875 13.945-7.6875 21.914 0 7.9648 2.7109 15.691 7.6875 21.914l1.125 1.4336c7.5664 9.4805 11.684 21.25 11.676 33.379v34.152c0.027344 11.996 3.5664 23.723 10.184 33.73 6.6133 10.008 16.012 17.859 27.039 22.59l29.848 12.801 16.129-37.633-29.848-12.801c-3.6602-1.5742-6.7812-4.1797-8.9805-7.4961-2.2031-3.3203-3.3867-7.2109-3.4102-11.191z" />
        <path
            d="m322.56 276.48v-40.961h-46.078v-46.078h-40.961v46.078h-46.078v40.961h46.078v46.078h40.961v-46.078z" />
    </g>
</svg>