<svg
  width="1200pt"
  height="1200pt"
  version="1.1"
  viewBox="0 0 1200 1200"
  xmlns="http://www.w3.org/2000/svg"
>
  <g>
    <path
      d="m888 552h-144c0-38.191 15.172-74.816 42.176-101.82 27.008-27.004 63.633-42.176 101.82-42.176h48v-96h-48c-63.652 0-124.7 25.285-169.71 70.293-45.008 45.012-70.293 106.05-70.293 169.71v240c0 25.461 10.113 49.879 28.117 67.883 18.004 18.004 42.422 28.117 67.883 28.117h144c25.461 0 49.879-10.113 67.883-28.117 18.004-18.004 28.117-42.422 28.117-67.883v-144c0-25.461-10.113-49.879-28.117-67.883-18.004-18.004-42.422-28.117-67.883-28.117zm0 240h-144v-144h144z" />
    <path
      d="m456 552h-144c0-38.191 15.172-74.816 42.176-101.82 27.008-27.004 63.633-42.176 101.82-42.176h48v-96h-48c-63.652 0-124.7 25.285-169.71 70.293-45.008 45.012-70.293 106.05-70.293 169.71v240c0 25.461 10.113 49.879 28.117 67.883 18.004 18.004 42.422 28.117 67.883 28.117h144c25.461 0 49.879-10.113 67.883-28.117 18.004-18.004 28.117-42.422 28.117-67.883v-144c0-25.461-10.113-49.879-28.117-67.883-18.004-18.004-42.422-28.117-67.883-28.117zm0 240h-144v-144h144z" />
  </g>
</svg>