<svg
    width="1200pt"
    height="1200pt"
    version="1.1"
    viewBox="0 0 1200 1200"
    xmlns="http://www.w3.org/2000/svg"
>
    <path
        d="m741.72 570.48c28.402-38.238 41.574-85.668 36.961-133.07-4.6133-47.406-26.68-91.406-61.918-123.45s-81.133-49.852-128.76-49.953h-240v672h312c43.562-0.10547 85.793-15.023 119.76-42.301 33.965-27.277 57.645-65.293 67.148-107.81 9.5078-42.512 4.2695-86.992-14.844-126.14-19.113-39.145-50.973-70.625-90.344-89.273zm-297.72-210.48h144c34.297 0 65.988 18.297 83.137 48 17.152 29.703 17.152 66.297 0 96-17.148 29.703-48.84 48-83.137 48h-144zm216 480h-216v-192h216c34.297 0 65.988 18.297 83.137 48 17.152 29.703 17.152 66.297 0 96-17.148 29.703-48.84 48-83.137 48z" />
</svg>