<svg
    width="1200pt"
    height="1200pt"
    version="1.1"
    viewBox="0 0 1200 1200"
    xmlns="http://www.w3.org/2000/svg"
>
    <g>
        <path d="m444 264h504v96h-504z" />
        <path d="m444 456h504v96h-504z" />
        <path d="m348 504c0 26.508-21.492 48-48 48s-48-21.492-48-48 21.492-48 48-48 48 21.492 48 48" />
        <path d="m348 312c0 26.508-21.492 48-48 48s-48-21.492-48-48 21.492-48 48-48 48 21.492 48 48" />
        <path d="m444 648h504v96h-504z" />
        <path d="m348 696c0 26.508-21.492 48-48 48s-48-21.492-48-48 21.492-48 48-48 48 21.492 48 48" />
        <path d="m444 840h504v96h-504z" />
        <path d="m348 888c0 26.508-21.492 48-48 48s-48-21.492-48-48 21.492-48 48-48 48 21.492 48 48" />
    </g>
</svg>