<svg
    width="1200pt"
    height="1200pt"
    version="1.1"
    viewBox="0 0 1200 1200"
    xmlns="http://www.w3.org/2000/svg"
>
    <path
        d="m1107.6 259.2h-776.4c-15.602 0-31.199 7.1992-40.801 20.398l-224.4 310.8c-8.3984 12-8.3984 27.602 0 39.602l224.4 291.6c9.6016 12 24 19.199 39.602 19.199h777.6c18 0 32.398-14.398 32.398-32.398v-616.8c0-18-14.398-32.402-32.398-32.402zm-271.2 435.6-72 72-94.797-94.801-94.801 94.801-72-72 94.801-94.801-94.801-94.801 72-72 94.801 94.801 94.801-94.801 72 72-94.801 94.801z" />
</svg>