<svg
    width="1200pt"
    height="1200pt"
    version="1.1"
    viewBox="0 0 1200 1200"
    xmlns="http://www.w3.org/2000/svg"
>
    <g>
        <path
            d="m1090.3 183.98v590.81c0.03125 19.555-7.7109 38.32-21.52 52.168s-32.555 21.637-52.109 21.66h-97.465v-438.25c0-71.133-57.75-128.99-128.73-128.99h-438.46v-97.406c0.015625-19.543 7.793-38.281 21.625-52.086 13.828-13.809 32.578-21.559 52.121-21.543h590.8c19.539 0 38.277 7.7539 52.102 21.559 13.824 13.805 21.605 32.531 21.633 52.07z" />
        <path
            d="m790.27 351.7h-621.09c-15.539 0-30.445 6.1719-41.434 17.16s-17.16 25.895-17.16 41.434v621.09c0 15.539 6.1719 30.445 17.16 41.434s25.895 17.16 41.434 17.16h621.09c15.539 0 30.445-6.1719 41.434-17.16s17.16-25.895 17.16-41.434v-621.09c0-15.539-6.1719-30.445-17.16-41.434s-25.895-17.16-41.434-17.16zm-155.25 509.77h-310.97c-18.527 0-34.418-14.062-35.754-32.531-0.73047-9.7539 2.6367-19.371 9.2891-26.539 6.6523-7.1719 15.992-11.242 25.773-11.242h310.96c18.527 0 34.418 14.062 35.754 32.531 0.73047 9.7539-2.6367 19.371-9.2891 26.539-6.6523 7.1719-15.992 11.242-25.773 11.242zm0-210.94h-310.97c-18.527 0-34.418-14.062-35.754-32.531-0.73047-9.7539 2.6367-19.371 9.2891-26.539 6.6523-7.1719 15.992-11.242 25.773-11.242h310.96c18.527 0 34.418 14.062 35.754 32.531 0.73047 9.7539-2.6367 19.371-9.2891 26.539-6.6523 7.1719-15.992 11.242-25.773 11.242z" />
    </g>
</svg>