<svg
    width="1200pt"
    height="1200pt"
    version="1.1"
    viewBox="0 0 1200 1200"
    xmlns="http://www.w3.org/2000/svg"
>
    <g>
        <path
            d="m600 792c42.129 0 83.516-11.09 120-32.152 36.484-21.066 66.781-51.363 87.848-87.848 21.062-36.484 32.152-77.871 32.152-120v-312h-96v312c0 51.445-27.445 98.984-72 124.71-44.555 25.723-99.445 25.723-144 0-44.555-25.723-72-73.262-72-124.71v-312h-96v312c0 42.129 11.09 83.516 32.152 120 21.066 36.484 51.363 66.781 87.848 87.848 36.484 21.062 77.871 32.152 120 32.152z" />
        <path d="m288 864h624v96h-624z" />
    </g>
</svg>