<svg
    width="1200pt"
    height="1200pt"
    version="1.1"
    viewBox="0 0 1200 1200"
    xmlns="http://www.w3.org/2000/svg"
>
    <g>
        <path
            d="m372 876h69.48l62.52 65.641c13.414 14.383 29.789 25.684 48 33.121 23.953 9.5234 50.176 11.828 75.422 6.625 25.25-5.2031 48.422-17.684 66.656-35.906l69.844-69.48h64.078c38.191 0 74.816-15.172 101.82-42.176 27.004-27.008 42.176-63.633 42.176-101.82v-372c0-38.191-15.172-74.816-42.176-101.82-27.008-27.004-63.633-42.176-101.82-42.176h-456c-38.191 0-74.816 15.172-101.82 42.176-27.004 27.008-42.176 63.633-42.176 101.82v372c0 38.191 15.172 74.816 42.176 101.82 27.008 27.004 63.633 42.176 101.82 42.176zm-48-364.44v-151.56c0-12.73 5.0586-24.938 14.059-33.941 9.0039-9 21.211-14.059 33.941-14.059h456c12.73 0 24.938 5.0586 33.941 14.059 9 9.0039 14.059 21.211 14.059 33.941v372c0 12.73-5.0586 24.938-14.059 33.941-9.0039 9-21.211 14.059-33.941 14.059h-64.078c-25.469-0.019531-49.902 10.082-67.922 28.078l-70.32 70.32c-6.5 6.6211-15.383 10.348-24.66 10.348-9.2734 0-18.16-3.7266-24.66-10.348l-65.52-68.398c-18.047-19.062-43.109-29.902-69.359-30h-69.48c-12.73 0-24.938-5.0586-33.941-14.059-9-9.0039-14.059-21.211-14.059-33.941z" />
        <path
            d="m492 600h60v60c0 17.148 9.1484 32.996 24 41.57 14.852 8.5742 33.148 8.5742 48 0 14.852-8.5742 24-24.422 24-41.57v-60h60c17.148 0 32.996-9.1484 41.57-24 8.5742-14.852 8.5742-33.148 0-48-8.5742-14.852-24.422-24-41.57-24h-60v-60c0-17.148-9.1484-32.996-24-41.57-14.852-8.5742-33.148-8.5742-48 0-14.852 8.5742-24 24.422-24 41.57v60h-60c-17.148 0-32.996 9.1484-41.57 24-8.5742 14.852-8.5742 33.148 0 48 8.5742 14.852 24.422 24 41.57 24z" />
    </g>
</svg>