<svg
    width="1200pt"
    height="1200pt"
    version="1.1"
    viewBox="0 0 1200 1200"
    xmlns="http://www.w3.org/2000/svg"
>
    <g>
        <path
            d="m300 552h96v-252c0-12.73-5.0586-24.938-14.059-33.941-9.0039-9-21.211-14.059-33.941-14.059h-120v96h72z" />
        <path d="m504 264h468v96h-468z" />
        <path d="m504 456h468v96h-468z" />
        <path d="m504 648h468v96h-468z" />
        <path d="m504 840h468v96h-468z" />
        <path
            d="m352.32 831.48 41.16-41.16c16.902-16.977 26.383-39.961 26.363-63.918-0.023438-23.957-9.543-46.926-26.473-63.875-16.934-16.945-39.895-26.484-63.852-26.527h-101.52v96h88.078l-31.68 31.68c-17.922 17.883-32.133 39.133-41.812 62.527-9.6797 23.395-14.637 48.473-14.586 73.793 0 12.73 5.0586 24.938 14.059 33.941 9.0039 9 21.211 14.059 33.941 14.059h156v-96h-95.281c4.2695-7.5 9.5156-14.402 15.602-20.52z" />
    </g>
</svg>