<svg
    width="1200pt"
    height="1200pt"
    version="1.1"
    viewBox="0 0 1200 1200"
    xmlns="http://www.w3.org/2000/svg"
    className="editorIcon"
>
    <g>
        <path
            d="m564 360h144v72h96v-120c0-12.73-5.0586-24.938-14.059-33.941-9.0039-9-21.211-14.059-33.941-14.059h-480c-12.73 0-24.938 5.0586-33.941 14.059-9 9.0039-14.059 21.211-14.059 33.941v120h96v-72h144v480h-96v96h288v-96h-96z" />
        <path
            d="m888 840c-6.3633 0-12.469-2.5273-16.969-7.0312-4.5039-4.5-7.0312-10.605-7.0312-16.969v-108h96v-96h-96v-96h-96v96h-96v96h96v108c0 31.824 12.645 62.348 35.148 84.852 22.504 22.504 53.027 35.148 84.852 35.148h84v-96z" />
    </g>
</svg>