<svg
    width="512pt"
    height="512pt"
    version="1.1"
    viewBox="0 0 512 512"
    xmlns="http://www.w3.org/2000/svg"
>
    <path
        d="m468.99 58.367v37.887c0 3.5859-3.0703 6.6562-6.6562 6.6562h-412.67c-3.5859 0-6.6562-3.0703-6.6562-6.6562v-37.887c0-3.5859 3.0703-6.6562 6.6562-6.6562h165.89v-29.184c0-4.6094 3.5859-7.6797 7.6797-7.6797h68.609c4.6094 0 7.6797 3.5859 7.6797 7.6797v29.184h162.3c4.0977 0 7.168 3.0742 7.168 6.6562zm-19.969 81.41v37.887c0 3.5859-3.0703 6.6562-6.6562 6.6562h-15.871l-22.527 266.75c-1.5352 25.602-23.039 45.566-49.152 45.566h-191.49c-25.602 0-46.594-19.457-49.152-45.055l-28.16-267.78h-16.383c-3.5859 0-6.6562-3.0703-6.6562-6.6562v-37.887c0-3.5859 3.0703-6.6562 6.6562-6.6562h372.22c4.0977 0.51172 7.168 3.582 7.168 7.168zm-246.27 300.03-7.168-232.96c0-4.6094-4.0977-8.7031-8.7031-8.7031h-32.258c-5.1211 0-9.2148 4.0977-8.7031 9.2148l13.82 232.96c0.51172 4.6094 4.0977 8.1914 8.7031 8.1914h25.602c5.1211 0.51172 8.707-3.582 8.707-8.7031zm78.336-232.96c0-5.1211-4.0977-9.2148-8.7031-9.2148h-32.258c-5.1211 0-8.7031 4.0977-8.7031 9.2148l3.0703 233.47c0 4.6094 4.0977 8.7031 8.7031 8.7031h25.602c4.6094 0 8.7031-4.0977 8.7031-8.7031zm84.988 0.51172c0.51172-5.1211-3.5859-9.2148-8.7031-9.2148h-32.258c-4.6094 0-8.7031 3.5859-8.7031 8.7031l-7.168 232.96c0 5.1211 4.0977 9.2148 8.7031 9.2148h25.602c4.6094 0 8.7031-3.5859 8.7031-8.1914z" />
</svg>