<svg
    width="1200pt"
    height="1200pt"
    version="1.1"
    viewBox="0 0 1200 1200"
    xmlns="http://www.w3.org/2000/svg"
>
    <path
        d="m600 408c-54.496 0.023438-108.36 11.648-158.02 34.094-49.656 22.449-93.965 55.211-129.98 96.105v-130.2h-96v240c0 12.73 5.0586 24.938 14.059 33.941 9.0039 9 21.211 14.059 33.941 14.059h240v-96h-118.56c38.891-43.438 90.051-74.047 146.71-87.781s116.16-9.9453 170.62 10.859c54.465 20.809 101.33 57.66 134.41 105.68 33.07 48.016 50.789 104.94 50.812 163.25h96c0-67.406-17.742-133.62-51.445-192-33.703-58.375-82.18-106.85-140.55-140.55-58.375-33.703-124.59-51.445-192-51.445z" />
</svg>