<?xml version="1.0" encoding="UTF-8"?>
<svg width="1200pt" height="1200pt" version="1.1" viewBox="0 0 1200 1200" xmlns="http://www.w3.org/2000/svg">
 <g>
  <path d="m1110 120h-390c-49.008 0-92.617 23.629-120 60.098-27.383-36.469-70.992-60.098-120-60.098h-390c-16.57 0-30 13.43-30 30v780c0 16.57 13.43 30 30 30h390c49.633 0 90 40.367 90 90 0 16.57 13.43 30 30 30s30-13.43 30-30c0-49.633 40.367-90 90-90h390c16.57 0 30-13.43 30-30v-780c0-16.57-13.43-30-30-30zm-540 810.37c-25.117-18.945-56.195-30.371-90-30.371h-360v-720h360c49.633 0 90 40.367 90 90zm510-30.371h-360c-33.805 0-64.883 11.426-90 30.371v-660.37c0-49.633 40.367-90 90-90h360z"/>
  <path d="m480 390h-270c-16.57 0-30 13.43-30 30s13.43 30 30 30h270c16.57 0 30-13.43 30-30s-13.43-30-30-30z"/>
  <path d="m480 510h-270c-16.57 0-30 13.43-30 30s13.43 30 30 30h270c16.57 0 30-13.43 30-30s-13.43-30-30-30z"/>
  <path d="m480 630h-270c-16.57 0-30 13.43-30 30s13.43 30 30 30h270c16.57 0 30-13.43 30-30s-13.43-30-30-30z"/>
  <path d="m480 750h-270c-16.57 0-30 13.43-30 30s13.43 30 30 30h270c16.57 0 30-13.43 30-30s-13.43-30-30-30z"/>
  <path d="m990 390h-270c-16.57 0-30 13.43-30 30s13.43 30 30 30h270c16.57 0 30-13.43 30-30s-13.43-30-30-30z"/>
  <path d="m990 510h-270c-16.57 0-30 13.43-30 30s13.43 30 30 30h270c16.57 0 30-13.43 30-30s-13.43-30-30-30z"/>
  <path d="m990 630h-270c-16.57 0-30 13.43-30 30s13.43 30 30 30h270c16.57 0 30-13.43 30-30s-13.43-30-30-30z"/>
  <path d="m990 750h-270c-16.57 0-30 13.43-30 30s13.43 30 30 30h270c16.57 0 30-13.43 30-30s-13.43-30-30-30z"/>
  <path d="m480 270h-270c-16.57 0-30 13.43-30 30s13.43 30 30 30h270c16.57 0 30-13.43 30-30s-13.43-30-30-30z"/>
  <path d="m690 300c0 16.57 13.43 30 30 30h270c16.57 0 30-13.43 30-30s-13.43-30-30-30h-270c-16.57 0-30 13.43-30 30z"/>
 </g>
</svg>
